<mxfile host="65bd71144e">
    <diagram id="EHfoJtCvKr0R3Nv-yGvU" name="Page-1">
        <mxGraphModel dx="645" dy="545" grid="0" gridSize="10" guides="1" tooltips="1" connect="1" arrows="1" fold="1" page="1" pageScale="1" pageWidth="827" pageHeight="1169" math="0" shadow="0">
            <root>
                <mxCell id="0"/>
                <mxCell id="1" parent="0"/>
                <mxCell id="2" value="" style="shape=image;verticalLabelPosition=bottom;labelBackgroundColor=#ffffff;verticalAlign=top;aspect=fixed;imageAspect=0;image=data:image/png,iVBORw0KGgoAAAANSUhEUgAAAk8AAAFVCAYAAAD2YgsOAAAgAElEQVR4nOzdf3QT9503+reNMYpBY5FAaqJJYsjTjaW2J07Si5TQpNAglVxofli658RZ7hPbu92k3TVy96xDb8FsbyF5As7ZYniahG4Xwy3BuedYTppCm1rOQqGkEm2Cc9tKzs0NuMkIvIEEMSZGNo59/xhprNEPW2Nk/IP36xwO1sxo5jMjyfP29/udUV6Z5cvD0WgURERERDS2/MkugIiIiGg6YXgiIiIi0oHhiYiIiEgHhiciIiIiHRieiIiIiHRgeCIiIiLSgeGJiIiISAeGJyIiIiIdGJ6IiIiIdGB4IiIiItKB4YmIiIhIB4YnIiIiIh0YnoiIiIh0YHgiIiIi0oHhiYhy7pFHXDCZTJNdBhHRhJjQ8FRSsgjfq6tHWZk1Zd6qVatRVfX3E7l5mmClpYvxvbr6tCfJsjIrvldXPwlV0WQpKVkEu30Zqqr+HotLlyAajU52SUREE6JgIlfe03MGkch53GO/F11dQXW6yTQf99iX4UTn2xO5eboKTKb5aacbDNdlnEczz6pVq3GPfRl6es7gVPdJvPHGQYYnIpqxJjQ8AcChw2+iuurbKC1djO7uUwCUFgsAOHz4TQCAyWRCJBKBwWBASckiRCLnEYlEUtZlMBjUE3JPz5mUeQaDQX2c7vmJy5aULEJPzxnNL/j4OhKfmzwtvg2eGMZntNc4/j5InhaNRtXjnfx4tGUTp5tM89O+3gDGfA+Mto74vLhMtcXXnen9m672bPY90z6XlCyCwWBQP3OZ6PnslZQsQjQaTal9+fJvwFJmxYsv7UyZl83+j9a9N9rnmIhoskx4eOruPoVI5DxWLH8AzXt+BgBYsfwBdHUF1V+M36t7Gl1dQZSWLgGg/JI9dLgDhw//p7qe8vI78eCqb6mPo9FLaHlln/pL2G5fhhXLH9Bs+0zPabz2mlfzi/rRR1woL78b0Wg0ZTt2+zLcWX4Xfry9UV0+edqqVWsw3zQfzXv+PWfH6FoRP/aRSAQmkwknOt/Ga695ASgtWN+rq0fznp+hu/skAKC8/C48+ogbr77Wis7Od9RlzvScwUsv7dSsu6RkEb7zVC26u0+pr43BYMBjj61Vu5AMBgN+/cYB+P1vAUj/Wq5atQaLSxerr3fiOuJ1/95/DG+8cVB9zvfqntbUEo1GcaLzbc0ydvu9WLF8pVpHNHoJzXv+Xf0MPPKIG5HIefV4pJtWXfUPONH5dsIfHcrxOHT4Tc206qq/h8FwXawW7eckUfz5XV1BlJVZ034mlGOitCrF97+n5zSa9/xMDWx3lt+Nllf2oazMArv9XnR3n0J390lN8EncfyWwnVf3/5FH3Fgc++wn+9cf/iDtdCKiyTTh4QkAfu9/Cw+uWq3+9W4yzcerCSeJuB9v34ZoNIoVyx/AiuUrY7+ET8Fkmo9HH/nfcPjwmzgUO0k8+ogblY+txYsv7VR/iUci59WTnsk0Hw+uWo3Kx9YmBJ/VKC1dgh9v34ZIJIKyMisqH1urbofGp6RkUUoXXUlJiebxPfZ7NcfeZJqP7zxVix77GTXMJDKZ5qeE4bhFJYs0LZnK+pelLPdgLBz9j+d+pL6vHly1Bp2d72TdchhfR3Ld0WhUDSwA1IAHQH1fRSLn4fe/hdLSxXhw1RpNCKx8bC0eXLUGLa/sy6qOdKrTjBmsrvp7dHefwq/fOIBoNJryGcgk8RglfvbKy+/CPfZlKftvty/D4cNvorR0MQwGAyofW4tQ7A8i5XV7QP1slpfflXb/H33EjeY9P8Oe2B9VAPB//vBZzbEkIpqKrsrVdp2dbyMajcZace5GJHJebV2IC3UF1RPaocNvoqfnDMrL7wKg/NUaiZxXgxMA/PqNAzCZ5qcdjA4oQepMz2nNtDvL78ahw2+qfxF3dQXR03Mm4zoyMZlMKC+/C+Xld6ldkNeyysf+d1RXfVvzLznMnOh8B817fqYe+0jkfKyl47q061yx/IGMXTY9PWc0wcpkmo/y8ruSuoKUab9OGHtz6PCb6sk8GwaDAeXld2neM5HIefzefwz32O/N+Lzu7pOarrSenjP48fZGNRBEIudxqvskSkoWZVVHOsuXfyO2rpFjVFZmhck0H4cOd6jb/r3/LZhM80fd1u/9b6Uco/hnoqsriB9vb9Ts/5me02pXm8l0PQyG63Do8Jt4442DOHz4TTTv+RkMhutgj70HysvvQldXULP/v37jAEpLl/DzQ0TT0lVpeYpGo+oJx2C4Dq++1jrmc870nMF80/UAoI5PSl5n/C/hOIPBgEcecanPmW+ar/5lbzLNh8FggN2+THPyjE9Ptw5AaeVIZjBchzvL71a3k9wFc62Jt0okKi+/G48mHMd4aCkrs2J+7DXLNNalrMyK8vK78OPt21K6xADg9/5jePQRt9r6tGL5A+juPoXzkfMp67bb74U9IegoY5pGAltJSYnm9V6ccDKPB47k915PzxkYDNfFut/iXVd3xVphrsPi0iXo6TmtXiQRjUZRUrIIjzziUuszGK5DNHpJs97FpUs0tcw3zUckcj5l/5VWuZVoeWUfHly1RlNvNHoJjzzi1uxvfHvZOtNzWjMeTHk9tLUn15XYUhSJnEeoK6h+duabrk+5OCTeaqh8ftnqS0TTy1UJTwDg9x+LjZs4r7nyLpPrEgJNfzSKS0knmky6u7sBAD09PbjHfi8eXLUaL770P9X573UFcT7hRN+JEykngsQgMN80P+XE09NzRjOuprrq21fcBTPTLV/+DdxZfjdefc2Lnp7TiEajaYMRADy4ajUOJ7T2JItEIujuPomyMiu6u0+htHQxDh1+Ux0zl+i9rhAuJXTRdXaeQE9Ci2Q8hCc+Th5Inhxy0jkfOa++9/pjQbG0dDG6ukIoKVmE6qpvw+8/htde8yISOY/lyx/AnUktYNHopawC+KpVq3Gi8210dQU14SlxH5NFIp+Oud504uPOmvf8TH3dsr3FiJ7ARkQ0nVy18KR0Y1zCqViXxlhKShYhFAtZZ3rO4B77vXgNI+OklLFTJk2rQDQaRWfCX7hdXUF8r65evYooGo1iGNAsk67OxLEsWP4A7izPfMm9cvI9zxPFGEpLl+BU98mU7tpkK2LdUYldtOkcOvxmbFyREjY6O9/RhKf4++JS9NKo42cikYjm9TaZ5qutT/H3TFmZVTMuy1JmVefFdXefUrfT2fk2hqF0E3d1hVAWW/7XCQPIE1s74870nNHUkq5LKx640l2wEG8R6+7+QFcraHIt803zE66MXaIOAE8nHsqSx6AtLl2MU7HnRCKfYnHpYhxOeF5830a7Oo+IaKq6KmOeTCYTli//Bkym+dpgkuAe+70wmUwwGAxYtWo1TKb58PuPAYh3CeTF1mGCyWRC5WN/m7YVKz7fZDKp3TXR6CVN12G82660dDG+89Q/oazMomt/5hgM6jbKyiyxoPcXnUfl2tIfjWJx6ZLY4HJT7DU2pZy4S0uXZHUlY3f3KfT0nMGDq1anDVpKkH4HK5Y/oJ6o4zf1zHas0ch7Zpm6jrIyizoOKpEh4T1RWroYi0sXq62lkch5mEzzYY+9x+OtcOOhjGlK3yqnXOF2HpWPrVWPbVmZBU899U9pw1rcitjnKvGzF/8DIxI5j5KSEpSWLlZft8Qr4+LB6sGE1zO+jvhnPd4quHz5N9RbHjz6iBsnOt9meCKiaemqtDx9r+5pRKNRvPHGgVG7Yqqrvg2TaX7KsvHLmisfW4sVy1cCUH5pJ3eTKZdeK11B8fvRtLzyc3U9hw+/iTwoV1A9+ogb0WgUfv8xdHWFdO3PopJF6nYikQg6O99Oe8UYjfj1GwdR+dhafOepWgBKq2B398mUMWV+/7GsW01OxK7cytQN/Os3DuDBVWtQXfVtAPFWxQ5dJ+zDh9/EdbGu2fg63njjQEpr1oOr1qhdaJFIBKGuv6jhobPzHSwqWaQu0919Cic638ad5Xdpxk1lI7GFK1k0GkXznp/h0Ufcms9B/Mq7THp6ejSfvVdfa1VfA7//GBbFuh3j2+/uPomSkpvU57/6mhcrlj+g2Wbi5667+xRefa1VvZIPUF7/xFs5EBFNJ3llli8PT/QNH5Vfypcy/gJPvDzZlGGQbFyublI51nZoYkzWTUZz8XrnYh16w9KVbCfdwO5EyffWGm3/snndstkmbzJLRDPBVWl50nPCGWvZXP3SZXCaHJN10szF652LdVyt/R/tTueZjLZ/2awrm20yNBHRTHBVxjwRERERzRRXpduOiIiIaKZgyxMRERGRDgxPRERERDowPBERERHpwPBEREREpAPDExEREZEODE9EREREOjA8EREREenA8ERERESkA8MTERERkQ4MT0REREQ6MDwRERER6cDwRERERKQDwxMRERGRDgXZLrhgwYKJrIOIiIhoWsg6PEWj0Ymsg4iIiGhayDo8Xbx4cSLrICIiIpoWOOaJiIiISAeGJyIiIiIdGJ6IiIiIdGB4IiIiItKB4YmIiIhIB4YnIiIiIh0YnoiIiIh0YHgiIiIi0oHhiYiIiEgHhiciIiIiHRieiIiIiHRgeCIiIiLSgeGJiIiISAeGJyIiIiIdGJ6IiIiIdCi4GhspLCxEfj5z2lQ2NDSEgYGByS6DiIhoypuw8JSfnw+TyQTjvHkMTtPE4OAgzkciuHjx4mSXQkRENGVNSHgqLCzEF268EQUFV6Vhi3KkoKAACxcsQLEg4ExPD4aGhia7JCIioikn501CBQUFDE7TXDz8EhERUaqch6f5JhOD0wxgMBhgMBgmuwwiIqIpJ+fhqaioKNerpElSLAiTXQIREdGUk9PwxKvqZpbCwsLJLoGIiGjKyWn/2ljBadbcGzG//O+QXzg37fzox3+G/JdXclbP3C8Yccc/3ovZ8+aknf9ZTy/+uO1QzrYHAMYbzCi5rRwFs9NvM5l8TkL4veM5rQEAFgB4LB+ItwMeG1b+ERER0ZW5qoOT5pV+A73v/xL9H/857fwblnqQN3suhi9/lpPtFZUYEfngEwT3/jHtfOsTX8VNy0px+lh3TrZXMHsO/sa2JuvgBADCAhEArihAFQF4OA+4Lm9k2i0Abkl8nAfcnhSeTgwr/4iIiCh7Vy08Gf/mW5i7+AFcJ9owNKANRwORU4ic+A/0vv86rr/z77Ja36y5X8DHhzZknH/TssWwPvFVzJ5XiIV33JQy/61Nv8H73j/hjn+8Fzd9bfGY2zPdtgC//efXcflif8ZliooX6ApO8jkJwgIRYpkdwPgD1O15gGOM3tIiAF/L005bCIYnIiIiva5aeCoy21Aw90YAqZfAG278Ci6FA+j/+M/45PiOrNZ3w9J1o843/bcbYPpvNwAA5pYYU+Z/0fUVBPf+EX/cml23XTyIjRae9Dr7YQjnPgphyZ2OKwpQ6TtBJ55oNsNmXwpfewfk3l51us22FHa7DQAQDIbg83VMUoVERES5N2XuKfCFFc9ktdzQwGeQXn38irdnfeKrsD7x1ayW/dXjL49rG5+eOYkP/3xEM61kSTlKbitXH5/9MAQAVxSg3hkGbh4GluWNjHEay4lh4LUrbHUSbzbj+cZteExai0AgAABo3PYc3G4X/IEAZLkXbpcLmxo2oLJyLaRw+Mo2SERENAVMmfCUrUyDzaeizy9H0d8na6YNXk5tuUoOUOc+CqG/rzdluUz6ALQMATfnA2V5yuM+KIPGPxoGbo511yX+vH8I+ET/Lo2qzlMLt9uF1WseRjAYBACIooiW/fvQ2LgVlY+vzfEWiYiIrr4pEZ4uhQP47NSbmDX3C5if5ZinK/G+9084fewUPuvpxY133ATrE19FUZquvSs1f9FtKI8NCI+blTAm6tav3A+xzKY+Hrzcr2vMVCa+2LeqPJwP/Mcw8BiUIPWvQ8DuWVe8+oxcrgq0etvU4AQAkiSh/un1aNm/D6JoBoYBT906NO/eg2BICY2edesghSV4vW0AALerAja7DfX16wEADRs3oN3XobZuxaf5AwG1S1AwGlFdXaV2F7Z629T1JdYXnx/X2tqmWW8i0WxGdfUTsFqtmnUKgoCGhvTj7drbffD5OtDYuBWtrW1wOh6A1WqFLMvYvPkZTetbvGar1QJBEFJqdjhWwm63YfPmkVbZmuoqWKwW1Nevh81mg9tdkbaOpqadkCQJNttS1FRXQRAESJKkTE+oweFYCafToXluvNb4MRMEI5qb96bdjtVqQXV1FTb/aIvadZtums22FG63C6LZDFmW0ept03Tnxo+FeLP28xJ/DyTzrFsH8WZzyvRgMKiptWHjBgjF2vuV+f0BzXF2uSrgdKxMe4zS7Uvyey/dMUre36amHQiGusbch8T3Y/J2RLMZnrp16nss2+0QUe5N+k2ZPgk04ezvnsWlj/+My+dPTvj2zr57Gu/+5Bhmz52D0m/ejvCxbvz2n1+fkG0VzJ6DOUWC5l9iOEqen4vglOyzqzQg3GqxQBRFtLa2pcwLBpWQZLPZIIXDEAQBu3a9AMGoBFb7PSNjpESzGQ0NGyB9NHKCdzpXKsErgdO5ElarRX188ODrcDod6kl5U8NGeNbVqvMbNm7ApoaNkGUZkiRBkiS4XRUp640TzWa0tOyD9UtWtHrbEAp14fnGraiufgIA1HWIZjOcjpXq415ZOcG6XRX46a4X0dt7ET5fB6xWKw4efB2ieWR7LS374Ha70O7rgM/XgTrPOjRu2zpyTK0WOB0rNTV5PLVwu5TA1Nvbq27XblsKq6VMfQwoweiVlpcRCnWh1dsG8WYRLS371OOuHEcH7DZbyv7E2e02OB3acJVIEIxwuyo0ASV5mtVqwSstL0O+oIQmubcXP931Imy2kdf84MHXYb9npA5BENT9TMd+j3Z/JUmC1WJJqdXpXAnRbNYcp8QAXeepxaaGjeoxstvtmmOUbv+S33vJxyh+3BP39+DBX6r7q1mPZWQ9ye/H5O00NGyA3WZDIHB81O0krpOIJsaktzzNmnsjSpzbce53z16V7V3u7UfpN29XW5suX+zH+94/4fLF/oz3gxqvsx8GcfLE2IOll9zpwMJbpu8vPLe7AhhWUlpvr5wyX5aVafETQ339ehw9chgeTy02b9G+7h5PLWS5F007srtwAFBOvv7AcbW1BQDMohludwWaduyEIAioqalCff16tCa0ONR5Ml90UF1TBSAPlZVKV6PX2wZZvoCa6io0N+9FU9POWMHKfqmPE+xu3oOmJmU/Wr1tOHrkMKqrn8DmLc/C5aqA1WrFffevUGsOhkJo2b8Prd70rWEeTy2AkUsmg8Gg2spnt9sgSWFNHS37f45Wbxu2x2rw+Tpw9MhhuNwVmlaSeGtLfH/cYubQMh6i2YztTTvVY+H1tsFuWwqn4wEEAgE4nQ6IoojVax5W3yvx1qDRBENdmv0VRVETTuP8gYC6XGJwUsLoOs37In6Mqqur0LQj9TXNRrEgpOyv0+GA3b5U87oKghGt3ja1ttHCYp2nFlarFZWPr1WPUabt2OxL1VZdIpoYkx6eTF+uvKrbu+lri9VbE1y+2I/wsW7M/YIx58EJULro5hSN3R04ES1OV5MgGCEYs/8qF1mWUV+/Hrt2vYBgqAuCUYBglOFZp4yZuu/+FWm3kamVSAqHY91YS+FwrIQgGDV/fcuyDFnuhcVSlnWNVqsF/qQAs7t5L1q9r2a9jngoitfQ7vOpXYBOx0r4/QHNMvHH8VCRSOlytGN38x7UeWoxFlE0QxRFyO0+uFyPJtRxISVgyGkCbyK73YajRw6p+9Ha2obmPdpuPHPCOo3GYs28dl8H/P4AXK5HIYoj3XJCsbKcJCmtjILRqAaDXBGEYnX9ySwJ3bFxSpeiVw3e49HqbYNgNKbs73iIZjM862rh8axD5eNrNe+XTNsR+LVKRBNu0sPTZLl8sV+5b1PvABz/7p6QbVy/6DZcv+i2CVn3VLJ7916EwxKOHjkM0WxWu+ni4r/MQwnTg8EgZLkXdZ5apcVAFGG325Wgc+FCyjY2NWzEpoaNGWto2b8PVqsVrV5v2hNwU9MONDRsgNvtyuoELZrN8Pu1AUYJYbk7uae7+lAKh9VQkVhLnacWTU07kG0vbDxo2u+xw/olq2b94fBpzXKZwkVcMBhUWwhFsxmNjVuBPGhar15pyXxFarxbLhgKpRxTAGj3+bC7eS+OHj2shoNcBQBByPzHS6Z5V/oaWy0WtLTsy7i/caIojnns3W6XWlPwL0HNvGy3Q0S5d02Gp896evHbf34decPA13/80IQMFgeUAeCfXx4Yc7lZswunfeuTJIVjrTsWtCfd18lqVVp8EgeyKt1zMu67fwVaWvapXU4HD7yetjvvX+rXawb5xltCAMDhcMBut2m6wJK7n3Y374HNboMgGNVukpb9+zLuTzAYSmk1EIxGCMXCmCe8TBLHGknhMOxJY2CA9KEtfqxavW1wjdK1kyheY9P2HSmvh7YmAZI0+olXlns1NdnsNtjtNk14uu/+5eo27falaNk/EqYaGpSBz08++V11WvLA/ebdzaipfgJe76vwBwKw25bCM0q3ajbiAWys10swGjX3KVPGSI3/thoNm1L3N7lLzm5fCgAIjdG9tr1pB7zeV9UrVp98amSdDZuUCykSB9WP1vVHRLkz6QPGr7Z4cLp8cQDWqq/i8mf9OPvu6Zze/DLu/JkP0OlrHvPf+TMTP1D+amhubkZNTZWmy0wwGtG4bSvafT412LhcFXC7Xah/WnsllTL2ZgdqaqpTBteORm1BGB5pl0keNBsfQ1Nf/334/YEx/1IPhUJwOlZqurgaGjZg10svZl2XNaGbUDSb4XQ61ACoDCK3aPazproKoijCm9A1KAgC3G4XnnzqH7PeLqAEBn8ggOrqKs10l6tC3SfRbIbVatG0CGa3XxbIcva30gCg6dYVzeaUrkOPpxaSFMb2ph3w+wP46ArCS1w8SISCwbTzfb4OyHJvbCzZSG12uy3lSk09BKOAxCZC0WxOCeKuigpIUjillTYdSZLw5FPfhd1u11wEoXR3jwTydNshoolxzbU8nX33NPp6lF/8f0i4u/jX/+0hLCxP/RqXKzFr9hwYb0g/TidRNuOipoPtTTthFIpx8ODr8PsDkGUZdrsNstyLzZtHun02NWxAq7ctbYDZ3bwHDudKPN/4HFavfkjTIpCJz9cBSQorXRjBkLpNUTSrJ5c6Ty22b9+pGTMymt3Ne+FwONDSsg/+wPFY0LDquleV0+lUxh319sauyAurrUB+vzKI+ZWWfWhv90Hu7YXbVZFSoyAIuupOtHnzs9j10gs4euSQug+iKKIysBYOhwPPNz6nqSkTq9WittIp3YF5aQfIZ+L1vopdu15Ay/59sRa3pRCEka7JeJhON9ZtvBoaNqCmugq7d+/J+B5SbsmwBY2NWzWvUzAU0oyDAqC5ClIURbhdFWrLYfyKuF0vvYAnn/ouvN42NDRsQMv+fZBlGVarEjbj78Vdu15UthMMprR+1sSu5kwOb8FgUO16DofD6m0tRtsOEU2cvDLLl4ej0WhOVmYwGLCopCTtvC+s2II5N34l43MHP/sYAGJf4TK6D//vh3HD0nWjfpVLpjuIX77Yj8sXU7vSZs8rzDho/FePv4zSb96O7t+8pwavdIQFZliWucasfyydvmZdN8mMq80H7swDzg0rN8m8JQ/oGla+JLgo9nNZ7GKt+s/Hvknm4OAgPhrlpC0IAhyOlQgEjmtO7na7DTab0i2R/PUsVqsVFkuZ5jnxLpx4mBJFETbbUnUZp9OBYDCk2YbT6Yj95T5yM06nYyWMgjH2vDBstqXwtfsgCAJsdluspWFkPIvLVZFSezK3qwJm0YxeuVe5HDxpPIzVaoXZfFPKV9CcOvk+/qV+PfKAUZ+feKwCgeOaQBk/Vokn0vixST65Jh/DxOXttqUpNcTXk3xMkvfHbrdpBoMD0Dwn/h7wxQJgpmlWqxUOxwPolXvR7uuAKJphNBrh83XAbrepP4+1n6Ptb+J6Mh2PdNNFUVQH1Se/X+P7Mhan0wGrpUwNgPHXNd3+Hj1yCMFQF9rbfSnr2dSwEbubm9HUtDPlPR7fzvDwsOb1ybQdIpo4UyY86dH/8Z/RFw6g9//NfH8mPV+/MpbIB5+gr0fGWw2/GXW5ucUL8eXlV3714HjD07I84O+y6Ig9B+Dpz8debqzwRJnFw9OVdP/Q9OHx1MJus2XVMnn0yCHNLQqynUdEU8dV67b7fKAvJ+sZ/Oxj/Neh9Hd3TpTLMUxvNbwxaotTXH+ffMV3Ce/vk7MaZJ7OsWEAQ0qLU6bvuPtwGDg27uqIKJ2wFEZQyG7sWDDUhXCGMV2jzSOiqeOqtTxdK+YUCTDfnv1g52Q9J0+g78K5HFY0fmx5Gj+Ppxa+9g7erJCIaAbKaXgqLCyE+abcDrqmydM/MIDTp0+PvSAREdE1JKe3KhgYGMDQ0FAuV0mTaGBgfN2HREREM1nO7/N0Icdfr0CT5+LFi5NdAhER0ZST8/AkyzIGBwdzvVq6ynovXkSuunOJiIhmkpyHp6GhIZzp6WGAmsai0Sg+/fTTyS6DiIhoSpqQWxUMDg7iTE8P5ptMMBgMKCi45m5kPi1Fo1H0XrzI7joiIqJRTFiqGRwcxNlzyiX32Yanpu3/Bk/dP09USTSKoaEhDvYnIiLKwlVpEsq2C2/+fBO7+4iIiGhKy/mYJyIiIqKZjOGJiIiISAeGJyIiIiIdGJ6IiIiIdGB4IiIiItKB4YmIiIhIB4YnIiIiIh0YnoiIiIh0YHgiIiIi0oHhiYiIiEgHhiciIiIiHRieiIiIiHRgeCIiIiLSgeGJiIiISIeCbBc0mUwTWcdV3w4RERHReLDliYiIiEiHrFueIpHIRNZx1bdDRERENB5seSIiIiLSgeGJiIiISAeGJyIiIiIdGJ6IiIiIdGB4IiIiItKB4YmIiIhIB4YnIt2ePu0AACAASURBVCIiIh0YnoiIiIh0YHgiIiIi0oHhiYiIiEgHhiciIiIiHRieiIiIiHRgeCIiIiLSgeGJiIiISAeGJyIiIiIdCia7gCuVn5+P/HxmwGwMDQ1haGhosssgIiKa1qZleMrPz4cgCCgWBAYnnQYHB3EpGkUkEsHg4OBkl0NERDTtTLvwVFhYiEUlJQxN41RQUADjvHm4zmDAf338MQYGBia7JCIiomllWiWQgoICBqcciR/LgoJpl5+JiIgm1bRKIQsWLGBwyqH8/HwsXLBgsssgIiKaVqZNEikoKMB1BsNklzHjGAwGBlIiIiIdps1Zs7CwcLJLmLGKioomuwQiIqJpY9oMeBktPC284ybc+s3b0867fHEA73v/H/T9V29O61lwswXCAnPWy4ffC6C/L7c1AMCyPOD2POXnS8PAL4aBvpxvhYiIiOKmTXgajfWJr+IP2w6lnVc4rxDl/3gv3tr0m5xtr2RJOW79yv26niMsEBE65r2iAHUzgLvytNMeTmw7zANuGAY+Gh6ZdA7AsWEQERFRjkz78HTHd5dhbokR1v/+1ZR5p4914/SxU4h88Am+/uOHslrf6d+dwvveP426zPxFS7Kub/ByPz6/3I85RQIsy1xXFKD+Lh+4JW/0Ze7KSw1YHw0BHzJAERER5cS0D09fdH8FAFC6KrXbzvy1UvzioVMI7v0jsDe79X11/YpclofPL/cjdKwNlmUVVxyg5o6zhqs1oslms6HOU4vKx9depS0SAY3bngPy8lBfv36ySyGia8S0D0+jmT1vDv7X/X+b1bLhY9149yfHxrWdD97pwMAlWTPNsqxC/bm/T85JgGofBpZh7NanuD4A7w0DZ3VtZXxE0Qy7bSnsdhssljKEpTDk3tyP8SICAJerAm5XBaxWC4A8BnYiuqpmdHgCgKISY1bLzZ43/qv5ej/5aMwglBygzLfbcPJEh67t+IaV7rf1s5THfRhpVYr/nDjtnWFg9wR/lZ3VYkFDwwbY7TZ12q8O/hIA0NrqxebNzzBEUU7VeWpRXV2NVq8XzXv2wu8PQJblsZ9IRJQjMzY8Xb7Yj/e9f0Lkg08AAOZlpRmvyLtSS+50ZJw3a/YcTStULv3T58DuWcCJYeB3w0BtPtAyBNwCwHEVbkIhms1oadmH1tY2PPnUd+FwrMTzjVuxeMkXIYoidr30AnbtehGVj6+F3WaDzb4UTU07Nc93uSvg9b4KDA/D5a5A8+49atgSBAHV1U/A630VkiSpz/N4alNqSXweAFRXV8FqtUC+cAHBUBe83jZ1nstVAVE0pzwHgFpn8jZdrgrY7TbIFy6guXkvpHA4Y42J02RZRnX1E2mPXzAYgs+nBGiHYyWcTuV95PcHNPUm1pVIlmU0Nyv90U6HA4JgRGvS8+KsViscjgfSHv/4cbDbbLBYy9R1Jks3XzAaUV1dBfFmEZIkwdvaph6bZE6HA8MYhizLcLtdkC9cQLuvA4HAcc1yNttSOB0rIRQXpxwLu30pXC4XVq95SPP6JMu0jvg+pxPwH4c/EEBNdRWCwRD8gUDa5TyeWvjaOxAMhTJun4hmtmlznye9On/yFoJ7/4jCuYWIvH8Of9h6CGc7T0/ItoQFYsq/uILZczTT5xQJOd/+ZwD6EgaEX61bFXg8tQgGQ9i85ZmUv/wlScKTT30XdrsNNpsNyAPqPOuUn2OcTgfcLhckSYJ4sxl1nnUQikeOjyAYUedZB7N55JYQoqgs53Q6YLfb4HQ4Up538MAvUFNdBUmSIBQX4/nGrZoA43ZXoM6zDtXVVSn71Nj4XMo2W/bvQ51nnbq+o0cPq/uRrsbkaaIoQhRFOB0O1FRXqY+LBaXmho0b8HzjNsiyDFmWsalhIxo2/kBTl8tdAbfLlbKuOIdzJVyuzCHdYilDnWedZlryMbfZl2rWmSx5vmg24+DB12G/xwZJkuB0ONDSsg+CMX1rr8OphOtNDRtjr/nNeKXlZc1rU+epxU93vQTk5UGSJNR51qFl/76R41BRgfb2djRuew6nTr6PUyffR+O25yAmHP86Ty1eaXkZQnGxuo6DB36h1pXp9RAEZX519RMpQTVRnWcdLFZLxvlENPNNuZan/S//X2mnv/nmIfznf6a/HUE6fT29sP73r8Ja9VVcvtiPXzzUjNPHTmFh+U25KlUV/F1bypinZMYbRNx218qcb3sy2e22jC0dgBKggsEQnI4HsHnLs/AHAnA6HkAg9he9y1WR8a/7sfzoR88gEAjAbl+Klv0vq9OtFgvk3l48+dQ/qi0TsiyjprpK02Iiy72oqalCc/NI65PLVQFBKNZsxxUbV7N6zcOalg5lYPzYtcuyrA5k9nhq4XZVaAY2C4IA65csqHz8bxEMKi0ZYSkMj6cWm7c8q1mXJEkp65pMSgtgHiorlfFGTU078W7nO6iurkLTjp1pnyPLvah8fK0atnftelHz2tjsNtTXP432WItcMNiFn+56AaJohiSFYbVaYbVa0NS0E/VPfx+iaEbjtq0QRRGVj6+FaDbD41mHzZufwe7mPQAAr/dVHDzwulrXaK8HEVE2plR48nj+OeO82YWFmKPjLuOJtyYIH+sGAJhum5jvcRu4dGHMMU9zii5MyLYnkyAUjznWRO6VIRQrgSTgD6C6ugqbtzwL0WyG1WrBjzY/k9OagqEQKivXQjAa4XCshCAYNa0Sce0+H5wOh9JtFTtx11RXxQLeSMh1uysQDIZgNt8Es1kJ3vKFC7A6chOEZVlOqddiKYMgaFsoBaMRcu/ox9pqtaitNLIso93XkdL9NxZBEDQtPa3etozrcDqdaG1thc020koTDAZh/VLmVhlJkjTvmdbWNk04SnntRFHz/HjX5PamHer66p9ej5b9+yCKZlgs1th6vZpttvt8cDodGUNdMrerAvZY66IkSWhq2pmxO5KIrj1TKjydPXcu4zyTyaQrPMVF/r9P8O5P3sJNyxbj1jS3M8gFyzLXhKx3qguGgmmDSSKrxQpvq3Ly3d28F55Y1138ZBlIank6euTwqOsTRWV74XDm8S4NGzfA7XbBH1AGEiefgOOam5vhdDjQ3LwXdvtSWK0WbN7yjCY8Acp4oecbt2qmJYfGV1r2YbzqPLXweNbBHwhAksJpj6lQLECSRj95S5KktgTa7Ta15sTwc+rk+2PWE19HsSBgU8NGWC1lKa1ggBJk3G63OlYrLhTKfvB2b6/2j4qa6iqlOzgUyngsksc6xR+bzSNdb8lj2SRJgt2WuSsuWTDUhfZ2HwCle/ngwdexevVDDFBEBGCKhadc++tv3kPnT97Cwjtuwv+yfvmEbWcixjFNB82792LXrhfg9b6advBsnacWsizDHxsQrPysdN1Zv2RN22X3WOVahGMnKFE0a1pBACWMybKcMUg4HA7U1FThvvtXqCfVTF1cu5v3orq6GjabDa6KR9HqbUs5McsXZLT7fGN27Tz55HcQDHVlrDsTq8UCj2cdKh9fC79/pDsz8epFABCMAiRp9G5CWe5Vg5LX2wZRNMPpXKkJT/fdP3IfM5ttadpQmLi8IBjV1sJ029ve1JRxgLlegiCgoWGDpsvNbl8Ku/1l7XJJY6oEY+rnT2mpGwlQotkMWc7+qs9gMKg5lu92vgOHc2XO9pWIprcZG57++pv38Ieth7DwjptQ/k/34vJnAwCUez/lWqevecxuO2GBeca1ULX7fGhq2omDB19XT/wA0Ni4FaLZDFEU8eRT39UEEl97BzyeWgiCgNWbU+/6Hg5LCcEo9bbo1dVPqONh0lFbHi6MtGhkah2TZRmtXi82NfwAVqtVEyziQqGQMlbGbFZbHUSzGYIgaALjBbk3YT+zv527UJxar9Wi7faKd3E2xbqqrkTiayGKY4//M48SOoKhoNpyl1grgIwtNMndka6KCkhSWBnPFNvvvwRHjqs11g0X1+7rgNPp0IQ5l6tCbcUMhQTIcq+mO1Y0m2G323R3Yao1x8Jar47wRUQz24wNT3/YqgwuP/vuafyqUvnLtfSbt+f8DuIAUHjd2C1PswpyH9qmgu1NO9DqbYPTsRI2+8gYEb8/AJ+vI6V7q9XbBo9nHSQprA6QzoYgCNj10gvKlVFSGI2xFhMh4Yq1+vr1CASOQ5Z7cfDg62j1tsFus2mupErW3LxXGevkDyhXgInaoLW7eS9cLpdyS4bYydftqkB7eweCW658vFYw2AVJCmPXrhfVeuOtToLRCIvVip/uegGSFNYE1HSsVot6XESzGVaLFavXZPe1RHGCIKjrAJR93b49/Tih+vrvo2X/Phw9cgi7m/dCNN8Et9uFpqYd2J2hhUYURRw88Au0+zogms1wu11qq168q+75xufQ6m2D1WpVxx0pr3MYzc174XQ4cPDAL9DqfRVWSxncbhc2x8bOybKMpqYdse5GC6RwONYNm5expnScjpVqd6/VUqZpQSUimrVg4Y0/HBwcnOw6xmQwGHCdwZAy3fpE6nfaAcDCO25C6Tdv1/y76WuLUZih5SnywSc4fawbN31tMU7HBphnsvAWi6arbuEtVpTcdueo/24Q/0azjr4LZ3G+5+RYu51iLoDlsRtMFAG4LU/5fy5G7jz+lTygKA/4EMo9oMbS19eHgYEB3bXEybKME52dmDNnDpxOByofX4tQKIT+/v6UZfv7+/GtNavx29/+FkeOHB2ZMawMLg/4A+hXa8lDf38/AoHjmDOnEJsaNqLV24ZgKKRe1n/27FlIkoRvfWsN9re0QJLCOHDgIARBwMKFCxEIHMdLu34KWZYRCobUdQeDIZw8eRKyLKNX7lWXSdymLMvo7+9Hc/Me9Mq9sFqtEAQBXm8bXtr105QaR4JiumlAHvIghSV0dr6rOR4+X4dabyjUhfqnvw9ZltF5ohMGgwGyLGPzlmc1YwKT1xV/HD8uoVAXNm95Rm1pysvLw9mzZ7X3VEo65nnIw9lzZ9V1yLKMph071Rab5G3KsqzWLooi5hgM2Nb4PH554GDa94nT6UB/fz/2738FVqsVyMvD5i3PaFoSE4/FyQ9OYmPDJsiyjJMfnMTZc+fUbS5cuFC571ZvLzZveUazzROdnQiFurBw4UIsXLgQnZ3vov7p9SlBPt3rMTI9rB6Dzs53sbFhE86eHblXf8B/fNQxmkQ0s+WVWb48HI1GJ7uOMZlMJsw3mVKmu//zqZysv6+nF5/9V29WXwxsWVahuZfTeJz9MKj7DuOAEpS2zcru++r+Ywg4lkV4OnvuHC5evKi7lvEQzWYcPXpYMyYpq+eJZhw9chiPVa5NGWQev13BffcvH3NQNU2eeHcuv0qFiKa7Gdttp9fH757GH7dmdx+pvgvnrjg8fX55fC09fQB+OARU5mUOUH0AupBdcLpaBEGIfR/Zo2j3+XQFp7hMz5Ev9I5rfUREROMx7cPTrx5/eeyFsnD5YvZhJvxeALNmzxn3VXZ9F84i/N74bg4JAOeGgZ1TKBhly+lcCX/guOYrQrIlSeG0A7oBZaxMpnk0dQT8AUgZbhtBRDSdTJtuu3nz5mHhgom5yeW17r8+/hh9fVfrS12IiIimt2nz3XbTYVD7dMVjS0RElL1pE56i0ShP8hNgcHDwiq60IyIiutZMm/AEjP71LTQ+PKZERET6TKvwFI1GEYlEJruMGePTTz/FdBjvRkRENJVMu6vtzkciuBSNYr7JBEOam2bS2KLRKM5HIgxORERE4zDtwhOgnPzP9PSgoKAABQWj74LVUoa7774bP9+Xm1saTHcDAwMYGhqa7DKIiIimrWkZnuIGBwfHHEQ+z2hEScmNbGUhIiKinJhWY56IiIiIJhvDExEREZEODE9EREREOjA8EREREenA8ERERESkA8MTERERkQ4MT0REREQ6MDwRERER6cDwRERERKQDwxMRERGRDgxPRERERDowPBERERHpwPBEREREpAPDExEREZEOBdkuOG/evImsY8IYDAbMmjV72tZPREREU0vW4clgMExkHRNmdoGyi9O1fiIiIppasg5P586dm8g6JkzvxYv4/PPL07Z+IiIimlo45omIiIhIB4YnIiIiIh0YnoiIiIh0YHgiIiIi0oHhiYiIiEgHhiciIiIiHRieiIiIiHRgeCIiIiLSgeGJiIiISAeGJyIiIiIdGJ6IiIiIdGB4IiIiItKB4YmIiIhIB4YnIiIiIh0YnoiIiIh0YHgiIiIi0qFgsguYSvLz8yEIAoqKijC7oAD5+dMzW/YPDGBgYACRSASDg4OTXQ4REdGMwvAUM2/ePNxw/fXTNjAlmlNYiDmFhTDOm4fzkQgikchkl0RERDRjTP+kkANFRUVYuGDBjAhOyeabTBAEYbLLICIimjFmXloYhxuuv36yS5hQN1x/PQoK2MhIRESUC9d8eJo3b941ESzY+kRERJQb13x4mltUNNklXBUGg2GySyAiIpoRZn6TyxjyRhnnVDB7DkwlS7Je18AlGfK5cC7K0igCcGfC4y4An+hcx6wZOJ6LiIhoMlzz4Wk0X15eiTlF+rq7Tp5ox9kPu65ou7cDWJDw+OY8wJmQffoAtHyufc54AhURERHpx/CUgbDArCs49ffJmFMkYMmdTgAYd4C6Mw+oHaORqAjA383STjsxDOwcGtcmiYiISAf25eSI1BXA2Q9DAIAldzqx8Jayca1n7ji3P9kjt0TRDJttKWy2pZNcydS166UX4XJVTHYZAADBaIQomsecLhiNsFjKIJpTlx1r/UREMxXDU5bkc2F88E6H5t+nZz7QLHPyhO+KA1QXgI+G9T3nk2HleZNBNJvRsn8fjh45jOcbt+KVlpdx9MghOBwrJ6miqcVmW4rGxq14t/Nt2O02BALHJ7skAID1SxYcPXIYnnW1mukOpwNHjxwGoLy2R48exvPPb8PBg79MWTaZYDTCs64W73a+jeqaqgmrnYhosjE8Zam/7wLOfRTU/Ou7cC5lueQANadI31/g54aBfx0CunQEqOeGgF9MUpddS8s+iKKI++5fgfvuX4HFS76Idt+beL5x6zXf+tC47Tn8dNdLAIAfbX4G992/HJIkTXJVWjU1VRlfp8bnt6Ld14HVqx/C6jUPoa5uXdrWKgDweGrx7rvvwH6PDUDeBFZMRDT5OOYpS8ICEUvu1LamzC1eqP688BYLhAXxE8swBi/3o2D2nCve7i+GgaJhwJEP/HAIqMkDFuQpP2+b5OjrcDjU4JQYCpqadsDtqoDLXQFfewds9vRdeaFgF4IhJWjabEtht9sgy73wtfsghcOxbayEIKQ/uXu9r0I0m2GzL4XX++qotVosZbBaLSnPT79fKxEKhmAWzbDbbZCkMAL+gFpTXLxmAPC2tmnmu1wVsNvtWL3moVEDk822FFarFYJg1Kwjvl/p+No7gLw8OBwPwNfeAbm3N2WZ+PMzzY+TZRkeTy02b3k2ZZ5gFOD3twGAug9mswhJSr2iNBA4jjvK74Ysyzh65FDG7RERzQQMT1maUyRg4S3WjPOFBeKEbPfc8MiVd58NA315QN+wMn2y2e1LEQyGUsKBLMuof3o9ZFmGIAhwu10AANEsQhAEBENBAErgCIZCaNi4AW63C+0+HwRBwKaGDfjR5i1obt6Le+w2WGKhx25TgowUVrbn9b4Km92G5xu3jhqeWvbvg9VqhRSWlJqMAqxWS8bnbGrYEPspD8FQCG6XC/AMo7JyrRpukmuuO7pOrRkA3O4KNDXtQMPGH8BqtUCWZexu3guvt03dTp2nFh7POvgDAchyL+qOrsP27TvQtGMnrFaretysFuV9Fz9uoVAXZFnG843b8Ji0FoFAIGUfxJvNeL5xG+4LLB81PG1v2onnG7eiuXlvSjiUe+WMwTWZ359aAxHRTHVNhCeLxYKm7f+Wdl5+fh7y82elTP+k9zKCPSOP5XNhhN8b+wRx65fvQ1FCi9RMJggCZFlOO6+93af+XFm5FgDQ2LgVotmMysfXqvOsFguczpWofPxvEQyG1OVqqqvQ3LwXP9r8jLrsqZPvY3vTDk0AGYvD4YDdbtO0jrlcFXi+ceuozwuGuvDkk98BAIiiiIMHXkd19RPYvOXZMWsGlKAnms3wel9F8569sNuUkCcIRjQ374VoNsPjWYfNm5/B7uY9AAC3qwKNjVvhDxxHu8+Hdp9yDFta9kGSwqivX6/Wl6n7TK9AIAB/IACPpxb1T39fM8/X3oGa6ioIggCrxaK0wKUJakRE15prIjz99a9/xc9/vj/tvOuvvx6FhYUp0wvn3QDTknvVx/19FyCfG3u8yuDl/vEXeg0KhkK47/4VAJRAYDabgWH9zWqNsTAkX7iAYKhLDVjxlhP5wgV9dQWD6s+SJKHV64XT6cDmLc+OWXM82LT7OrC9aQcApWXGLJrVgFVdUwVJCqvBCQBavW3weGrhdDyQdUip89RCCleo29ATLOOamnaiZf8+NDXt1Ezf3bwHsizDYrUgEDieEq6IiK5V10R46uvrU8fWJCspKcF1ab66RFgwANOSxMciLMvGvsz8Wml1isvFd+bVVFfB46mFLMuQwmGIZhGAvgAVb1USRVHTwuPzdUCSwjh48HX4Y1e66b3sHgCCwRBqqkeuIMum5vb2Ds1jvz8Ad+xWBYIgpB0LJYXDEIqLs65LCochSZLSdehZh5rqJ7B6zcM69kypyx8IoLFxK1oTwpfdZoNZNEOWZRgFI6qrn0gJWERE16JrIjzlwpwiQffdxme6UDAEp2MlBKMxZVxNY+NWBINBtRsrE7t9KRoaNqDy8bXquBmPp1YNGdlKPKmHJQl1nnVobt4LWZbx5FPfRcv+fcp4q2BwXIFPjIUIPTUXjzFeKFMdelrJWlvb1FYqn68jNr7LMsazUsVbnxLHPQmCEaI4MWP5iIimM4anLH165iQ+/PORMZf7m6Wrr5nWp3ZfBxoaNsDlrtCEJNFshttVgfosBhGbzcrJOXHA8XhahhLJcq8mmDgdD0CWZWze/AwkSYLLVQHnGPehSr583+lwqOObxqpZksKQ5V44HCvR7htpfbLblqrr8LV3wO2qgGg2a66ws9ts8Lbq73oDAPmCEu6MRgF6W+7irU+JAbDd16Gpn4iIFAxPWfr8chT9fekHRye6lsY8SZKEpqad2NSwEVaLBf5AAIJQjJrqJ+APBDRdQJmEY8Ghcdtz8AcCsNtscLtdGQeiZ+LxKDdwFIxGuN0u7N6tjCWKD8yur1+v6x5LNTXVAAB/4DjsNhusVgtWr3lIU/Oul15Au8+Xtub6+vXYtesFyLKsrsPtdqmD0Nt9PvgDAbS07MP2pp0AhlHnWYdgMJTVcYtzuytgj93SwOlYqQ7qtme4zcFo6uu/z9sMEBFlYdaChTf+cHBwcLLrmDC33norSm+9BUeO/C7t/Hnz5mF2QWqGTL41wZwiAV8o/QpKbisf9d+cIgH5s0bW13OyE59fHtBd97LY/ZwwDBQDWJQHXAJQlgcU5QEXhoG7Yvd58g0r80YzNDSkO5Bkwx8IICyFYb/HBrvdDkEQcOTIUc2VYXHFggC5t1czGFqSwggFu/D15ffD6XAgEPgDmpp2Yo5hDgL+APoHRo6dKIoI+I9rupaKBQHIU7rABEHAHIMB+/e34KVdPwUAOJ0OBENdaE4YmB1/ji9Dq0pNdRVavW0QiovxrW+tgVAsYPPmZ9QxU/Ga7ffYUmqO30bgg5MnEZbC+Pry+/GtNavRPzCAjQ2b8NsjR9Xt+HwdGOgfwLe+tRp2ux0HDvwKGxs2ob9fG8CLBQEnPziZNG4vDwsXKi2c8X3v7HwX9U+vV54/DAjFAnztPs0xVKWZL8syeuVenD13LuOxyYYoiug80YkPTp4c9zqIiKayvDLLl4ej0ehk1zFh7r//Pnz9/q9h85b/kXZ+5gHjZliWua54+52+ZvT3Zb7PTiYP5wEPZ3ETzHMAnv587OUGBwfx0RS7u/VUdfTIIbR62zg4moiI0mK3XQbjCTzpjKfVCVBakxYMA6N9O945APunwM0yiYiIriUMTxn098kIvxfAgpsz31V8LD0nT4x7DFQfgP+YpO+ru9YFQ10Ip/kKEiIiIoDhCcNDmROK1BWA1MU7Kl9r4oO6iYiI0pnkr5adfJdn8GD5RDP5ogAiIqKr6ZoPT319fZNdwlXRe/HiZJdAREQ0I1zz4Skajc74ADU4OIiLDE9EREQ5cc2HJwA4e+4cBtLdC2cGGBwcxJmenskug4iIaMZgeIJyA8kzPT0TchPJydTX14fw6dMc70RERJRD1/zVdnFDQ0P45NNPcT4SgcFgQEFBAfLzp1+2HBoawtDQEPr6+jA0ypWEREREND4MT0niwYOIiIgonenXtEJEREQ0iRieiIiIiHRgeCIiIiLSgeGJiIiISAeGJyIiIiIdGJ6IiIiIdGB4IiIiItKB4YmIiIhIB4YnIiIiIh0YnoiIiIh0YHgiIiIi0oHhiYiIiEgHhiciIiIiHRieiIiIiHQoyHZBg8EwkXVMmMLCQuTlzZq29RMREdHUknV4WrhgwUTWMWHmzZ2HgoKCaVs/ERERTS1Zh6ePJGki65gwi5csxuXL/dO2fiIiIppaOOaJiIiISAeGJyIiIiIdGJ6IiIiIdGB4IiIiItKB4YmIiIhIB4YnIiIiIh0YnoiIiIh0YHgiIiIi0oHhiYiIiEgHhiciIiIiHRieiIiIiHRgeCIiIiLSgeGJiIiISAeGJyIiIiIdGJ6IiIiIdGB4IiIiItKhYLILmEry8/Mxb948GAwG5OdP71x58eJFRKNRDA4OTnYpREREMwrDU0xhYSG+cOONKCiYGYfkOoMBg4ODOB+J4OLFi5NdDhER0YwxM5LCFSosLMSikpJp39qUrKCgAAsXLAAABigiIqIcmVlpYZy+cOONMy44Jbrh+utn9P4RERFdTdf8GXXevHkzpqsuk/z8fAiCMNllEBERzQjXfHgqxnKv2wAADJ9JREFULCyc7BKuiusMhskugYiIaEaY2U0uWRgtPBXMnoPC64yYNXtOVusauCSjv683V6Vp3AygKPbzOQCf6Hz+TG9dIyIiulp4Rh3Fl5dXYk5R9t1d/X0yQse8VxygEoMSANyeBzyS0EbYNQz8Ykj7nPeuaItERESULYanDIQFZl3BCQDmFAmwLHNdUYC6Mw+oHaMztSwPKJulnXZiGNg5lH55IiIiyp1rfsxTrvz1T0fQd+GsGqDmFBnHtZ6549x+0diLTCjBaIQomiEYx7ff1wLPulq4XBWTXYZuomjOetn4+4CIaCZjeMpS34WzkLoCmn/yOUmdP3i5H6FjbVccoM6Os74Px/m8KyUYjWjYuAFHjx7G0SOH8e677+DggV9ANPMECgA221I0bPwBWvbvQ13dOgQCxye7JACA3b4Up06+D8+6Ws10l6sCp06+DwAQzWYcPPA6Dh74ZdplE4lmM1r278O7776jvA863x51eSKi6YzhKUufXTiL8HsBzT/5XFizTLoAVZDlYPO494aBms+VcU3Zqv8caJmkLruGhg1wOh148qnv4o7yu7F6zcOQwqfR0rLvmm+FqvPU4pWWl2H9khXBUAiVj6+FJEljP/Eqqqmpyvg6eTy1CIZCuKP8LlQ+vhZ1desyLrtr14sQBAH33b8Ci5d8EU1NO1FXtw42m20iyycimhQc85SlucULYb5deyIQFoy0rsxftEQdIyWfC6OoeCHmFAmYNbsQg5f7x73d9mGlK29ZHrB7CFiZByzIA7YNAT+c5Ohrty+F2+3CY5VrEQgEAADBYBD19etx9MhhuNwV8La2wWK1pH1+WApDCisBVDAa4XCuhCz3IhQMqdMtlrKM96gKBI5DMBphsVrGbNERjEaYRbNmXZmeY7GUoVfuhSzLcDhXQpLCaZfNVDOgtOC4XC6sXvMwgsHgqHWlW0d8v9IJBUOQe3thsy1Vf063XovVknH+iDxUV1ehacfOlDlWqxW7m/cAAPx+5fW1WK3qa61uSxBgtVrwWOVIONzdvAcuVwXc7oqU5YmIpjuGpywVFS9EUfHCjPOvX3Qbrl90W863+9EwsAAA8oDQMHBvHtA3DHyoo2Vqojgcjliw0J4cZVlGU9MOSFIYoiji+catAABBKI7NvwAAaG7ei93Ne1DnqYXHsw7BUAiCUYAgGPEPT34XgUAANTXVsNuWAgBEUYQs96rPv+/+FXA4HXi+cSsWL/lixjobNm5ATU2VemIXhGIIgjHjc36660XIsgxRvBlSWILVYoEkSVi9+iE1iIxWMwC43RXY3dwMx8oH0LDxB5BlGa3eNvh8Hep23K4KNDRsUAOT1WJBff16tHrbYLfb0dDwg7T7/S/130c4LOGVlpc1wTWR9UsWtOx/Gffdv3zU8NTc3Iyamio0N+9JH8KEsVsPZVnGffevSGlVEwTjqMGRiGi6uibC0y233oqNG/6PtPMKCwvTfnVJ3+AsnIyMPJbPhXH2w9CY2xLLluq+Sm+6EgQhYzdUvMUCUEIOADQ2boVoNqPy8bXqPNFshsezDv/w5HfUYLFr14uo89Si8vEA6uvXq8ueOvk+frR5C7zetqxrdDgcqKmpQuXja9XWE5erQg10mfetWAkesgxRFHHwwOtqC0285njQie9bvGYAsNtssFosaG1ti4UhG36660V1P0WzGY2NW7F9+0407dgBAKjzrENj41b4/QG0+3xo9/kAAC0t+yBJYc2xyNWg7FZvG2x2W9rWJ5/Ph5rqKsiyDKvFmjYoxyW/D1yuCoiiCJ/vzZzUSUQ0lcz48BQKhbDv5y9nnG8ymdLeQHL23BuA663q4/6+Czj30dh/RS+8peyaCU+5IIXDKS1AwWAQbp1XpXk8yuBkWe6Fr9030v0VazkJ/kVfC0ir1wtZlpUaJQmtXi/c7go07diZtmZJkhJayJRg0+7rwOYtzwCAGvjqPLXw+TrgcldAksJqcAKA7U07UF1dBZerIm03WjpudwXsdmW7fn9gXAPSm5p2YtdLL6A5IfAq9eyEJIXhdrsgSWFN6B2NaDZjU8MGbN++c8qN8SIiyoUZH57Onj2H3549mnF+SUlJ2q8uERaYYVlmTXgsYsmdK8fc3rUWnHLxnXkOx0rUVFfBbrdBkiQIQrHaRZUtURRj/ysn7h9t3oLm5r3w+Togy71Ki07gOGT5/2/v/mGbOOM4jH+hqZAs2V0orXpHO3TBFkO71JaqboWlVaUmXoKQsL20UhXMUGAIZsCNVEoH0kptYUiIFOHFSXcSCQkWuxOTTYdOnCESkUrONDLBkA4Xn+L8sf2GSCb281mQcHw5m4FH7/u7uyU/ckxUnErTZ+3knPP55hWyQqHoR6Ft21uGRalckn3Y7vi8QqGgbNtWKBTSmfRp5fOzOnvufPs3bjivUrmsTGZUhXXxZVuWHjiOrl71As+y3msbQ7ZlKZeb1sTEVFMYAkAv6fl42i0HAiG9/X6k/Q/2EW9La+vto8yFUZXK5bZbbLZl6fq135XNjvkrG+n0iPHK0/otrUzmgs6kT2tyckqu6+qLL7/S3Tu3FYlE5FQchYLmwRdcN/vT6Tm/1WZeaDfCc2Jiyt9Ki8Wiyt2c1uSNG23etdn4+K/K3fS2BxtisaiG4s2faXh4+9WnUDCoXG5ahcJfhBOAnkY8dchdrKjyd/urhj44+lnLwfJeMjc3r1QyoWg02jQLY1uWUqlEU9BsJxrzrmBcPyP1qrc4qDhOU5jEh772t50cx+ls5mnDOUTCYZVK5Y7O2XEqct2qwuGwbq0bEI9FP/GPUS6VdfzY5woFg/6gtm1ZikWjOps3WzlqcJe8bcZgMCTJ7IqCQqGowtqAfkN+Ztaf6epELjct160ar3wBwF5DPHXo2fJS000xt/MqtyXYawqFoiYmp3T92m+6lB1b274K6Ux6RI5T6eg/3srabFL69IgKxaJi0ahSqaQ/b9Sp6Lp5o2TylP+7bcvyhqHHzeZv4vEhlcr3VSwWlUwkdPz4MT8GOznn8fFflE6PyKl4Q9ZDg4OKx4f8Y+RnZpVMJpTLTetS1puLupgZ7fh7a4hEjkhalW1bSiUT/lB3Yw7KRGP1aSeu/PSjbNvW92fP+/8WDe1vlwAAewvx1KHQQVvhT9tvJe32qtNhrd2qQN4z7Q5KCuyTPt7V37Jz2ewPKpdKSqUS/iX9t+bmNT6+eeC56rqqbtjKKhSKymbHNBQfVCqVVKlcUjY7pmTyVNOqjOQNZVc3RFXVrcpxHH8lya1WNTPzp78qFI8PynGcplWixntauTU3r3h8UBczF+S6S8pmx/yoKRS8qwCTqcSmc7ZtS45T0cTkDbmuq1QqoZ+vXJbjOE3HcF1XwydOKp0e0fVrf0jy5p2++fa7TefiOBV/Van57x2lkgn/c5dKZf97d5daf8atXveu8ptXJHyk5XezlVgsKtd1dTEzuum14RMniScAPWXfkfDR1Vqt1u3z6JrWA+NDr3z8e3OTO3pI8PA+6VgHN8FclnTuhfdnK/V6XQ+48qkjd+/cVn5mdssABACAx7Ns48Xzla4eZ07eo1paWZaUW20fTgAAYPewbbeN/5Yea+Gfe3r3w492fAznfnHHM1CLq9Ll1+Au4v3IqVRUddlmAgBsre+37d45dEiBQGDb1wfePKA3DB/uK0kvnj97rYbH2bYDAGB39P3K0/N6veXr9dcsgnaq3uZzAgCAzvT9zNPycn9MDFWfPu32KQAA0BP6Pp5qtZp6fduyXq/rKfEEAMCu6Pt4kqTHi4s9u6318uVLPVpY6PZpAADQM4gneSszjxYWem51plarqfLwYc+GIQAA3dD3A+MN9XpdjxcX9e+TJwoEAhoYGND+/XuzLVdWVrSystLz25EAAHQD8bRBvV43fq4aAADoH3tzaQUAAKBLiCcAAAADxBMAAIAB4gkAAMAA8QQAAGCAeAIAADBAPAEAABggngAAAAwQTwAAAAaIJwAAAAPEEwAAgAHiCQAAwADxBAAAYIB4AgAAMEA8AQAAGCCeAAAADBBPAAAABognAAAAA8QTAACAAeIJAADAAPEEAABggHgCAAAwQDwBAAAYIJ4AAAAMEE8AAAAGiCcAAAADxBMAAIAB4gkAAMAA8QQAAGCAeAIAADBAPAEAABggngAAAAwQTwAAAAaIJwAAAAPEEwAAgAHiCQAAwADxBAAAYIB4AgAAMEA8AQAAGCCeAAAADBBPAAAABognAAAAA8QTAACAAeIJAADAAPEEAABggHgCAAAwQDwBAAAYIJ4AAAAMEE8AAAAGiCcAAAADxBMAAICB/wF+Knz3kZhK9QAAAABJRU5ErkJggg==;movable=0;resizable=0;rotatable=0;" vertex="1" parent="1">
                    <mxGeometry x="118" y="180" width="591" height="341" as="geometry"/>
                </mxCell>
                <mxCell id="3" value="" style="endArrow=none;html=1;fillColor=#1ba1e2;strokeColor=#00ff00;dashed=1;" edge="1" parent="1">
                    <mxGeometry width="50" height="50" relative="1" as="geometry">
                        <mxPoint x="165" y="556" as="sourcePoint"/>
                        <mxPoint x="165" y="213" as="targetPoint"/>
                    </mxGeometry>
                </mxCell>
                <mxCell id="5" value="" style="endArrow=none;html=1;fillColor=#1ba1e2;strokeColor=#00ff00;dashed=1;" edge="1" parent="1">
                    <mxGeometry width="50" height="50" relative="1" as="geometry">
                        <mxPoint x="185" y="549" as="sourcePoint"/>
                        <mxPoint x="185" y="206" as="targetPoint"/>
                    </mxGeometry>
                </mxCell>
                <mxCell id="6" value="" style="endArrow=none;html=1;fillColor=#1ba1e2;strokeColor=#00ff00;dashed=1;" edge="1" parent="1">
                    <mxGeometry width="50" height="50" relative="1" as="geometry">
                        <mxPoint x="144" y="551" as="sourcePoint"/>
                        <mxPoint x="144" y="208" as="targetPoint"/>
                    </mxGeometry>
                </mxCell>
            </root>
        </mxGraphModel>
    </diagram>
</mxfile>